<svg width="25" height="24" viewBox="0 0 25 24" fill="none" xmlns="http://www.w3.org/2000/svg">
<path d="M23.3751 0.625H14.9167C14.0221 0.62803 13.1606 0.964016 12.5001 1.5675C11.8396 0.964016 10.9781 0.62803 10.0834 0.625H1.62508C1.30461 0.625 0.997267 0.752306 0.770661 0.978913C0.544054 1.20552 0.416748 1.51286 0.416748 1.83333V19.9583C0.416748 20.2788 0.544054 20.5861 0.770661 20.8128C0.997267 21.0394 1.30461 21.1667 1.62508 21.1667H8.58267C9.22329 21.1681 9.83739 21.4226 10.2912 21.8747L11.6458 23.2293C11.6567 23.2402 11.6712 23.2438 11.682 23.2547C11.786 23.3513 11.902 23.4359 12.0373 23.4915H12.0397C12.3345 23.6135 12.6657 23.6135 12.9605 23.4915H12.9629C13.0982 23.4359 13.2142 23.3501 13.3181 23.2547C13.329 23.2438 13.3435 23.2402 13.3544 23.2293L14.7089 21.8747C15.1628 21.4226 15.7769 21.1681 16.4175 21.1667H23.3751C23.6956 21.1667 24.0029 21.0394 24.2295 20.8128C24.4561 20.5861 24.5834 20.2788 24.5834 19.9583V1.83333C24.5834 1.51286 24.4561 1.20552 24.2295 0.978913C24.0029 0.752306 23.6956 0.625 23.3751 0.625V0.625ZM22.1667 18.75H16.4175C15.4519 18.7528 14.5089 19.0426 13.7084 19.5825V4.25C13.7084 3.58421 14.2497 3.04167 14.9167 3.04167H22.1667V18.75Z" fill="white"/>
</svg>
