<svg width="23" height="29" viewBox="0 0 23 29" fill="none" xmlns="http://www.w3.org/2000/svg">
<path d="M21.9545 0H1.04545C0.467187 0 0 0.462835 0 1.03571V27.9643C0 28.5372 0.467187 29 1.04545 29H21.9545C22.5328 29 23 28.5372 23 27.9643V1.03571C23 0.462835 22.5328 0 21.9545 0ZM13.4602 2.33036H16.5966V9.12399L15.0774 8.02679L13.4602 9.17254V2.33036ZM20.6477 26.6696H2.35227V2.33036H11.5V11.9398C11.5 12.0467 11.5327 12.1535 11.598 12.2408C11.6377 12.2964 11.6881 12.3436 11.7463 12.3797C11.8045 12.4159 11.8693 12.4402 11.9371 12.4513C12.0048 12.4625 12.0741 12.4602 12.141 12.4446C12.2078 12.429 12.2709 12.4005 12.3266 12.3606L15.0643 10.4219L17.7237 12.3444C17.8119 12.4092 17.9197 12.4448 18.0308 12.4448C18.3183 12.4448 18.5536 12.2117 18.5536 11.9269V2.33036H20.6445V26.6696H20.6477Z" fill="white"/>
</svg>
