<svg width="35" height="36" viewBox="0 0 35 36" fill="none" xmlns="http://www.w3.org/2000/svg">
<path d="M34.1389 17.982C34.1389 8.055 26.4918 0 17.0695 0C7.64712 0 0 8.055 0 17.982C0 23.4495 2.35559 28.377 6.04259 31.6845C6.07673 31.7205 6.11087 31.7205 6.11087 31.7565C6.41812 32.0085 6.72537 32.2605 7.06676 32.5125C7.23745 32.6205 7.37401 32.7622 7.5447 32.9062C10.3656 34.9231 13.6955 36.0008 17.1036 36C20.5117 36.0008 23.8416 34.9231 26.6625 32.9062C26.8332 32.7982 26.9698 32.6565 27.1405 32.5462C27.4477 32.2965 27.7891 32.0445 28.0963 31.7925C28.1305 31.7565 28.1646 31.7565 28.1646 31.7205C31.7833 28.3747 34.1389 23.4495 34.1389 17.982ZM17.0695 33.7342C13.8604 33.7342 10.9245 32.6543 8.5006 30.8565C8.53473 30.5685 8.60301 30.2828 8.67129 29.9948C8.87471 29.2142 9.17306 28.4648 9.5589 27.765C9.93443 27.081 10.3782 26.469 10.9245 25.929C11.4365 25.389 12.051 24.8873 12.6655 24.4913C13.3142 24.0953 13.997 23.8072 14.748 23.5912C15.5049 23.3761 16.2856 23.2679 17.0695 23.2695C19.3966 23.2521 21.6382 24.1934 23.3169 25.893C24.1021 26.721 24.7166 27.693 25.1604 28.8068C25.3994 29.4548 25.5701 30.1388 25.6725 30.8565C23.153 32.7244 20.1493 33.7291 17.0695 33.7342ZM11.8462 17.0842C11.5454 16.358 11.3941 15.5727 11.4024 14.7802C11.4024 13.9905 11.539 13.1985 11.8462 12.4785C12.1535 11.7585 12.5631 11.1128 13.0752 10.5728C13.5873 10.0328 14.2018 9.603 14.8846 9.279C15.5674 8.955 16.3184 8.811 17.0695 8.811C17.8547 8.811 18.5716 8.955 19.2544 9.279C19.9371 9.603 20.5516 10.035 21.0637 10.5728C21.5758 11.1128 21.9855 11.7607 22.2927 12.4785C22.6 13.1985 22.7365 13.9905 22.7365 14.7802C22.7365 15.6082 22.6 16.3643 22.2927 17.082C21.9962 17.7913 21.5798 18.4379 21.0637 18.99C20.54 19.5334 19.9269 19.9717 19.2544 20.2838C17.8436 20.8951 16.2612 20.8951 14.8504 20.2838C14.1779 19.9717 13.5648 19.5334 13.0411 18.99C12.5243 18.4459 12.1178 17.7968 11.8462 17.082V17.0842ZM27.6867 29.0228C27.6867 28.9508 27.6525 28.9148 27.6525 28.8428C27.3168 27.7164 26.8219 26.65 26.1846 25.6793C25.5466 24.7014 24.7627 23.8389 23.8631 23.1255C23.1761 22.5805 22.4315 22.1214 21.6441 21.7575C22.0023 21.5083 22.3342 21.2194 22.6341 20.8958C23.1431 20.3659 23.5901 19.7737 23.9655 19.1318C24.7216 17.8218 25.1121 16.3136 25.0921 14.7802C25.1027 13.6452 24.8936 12.5197 24.4776 11.4727C24.0669 10.4639 23.4758 9.548 22.7365 8.775C21.9984 8.01007 21.1296 7.39933 20.1761 6.975C19.1816 6.53714 18.113 6.31742 17.0353 6.32925C15.9575 6.31813 14.8889 6.53861 13.8945 6.97725C12.9328 7.40067 12.0619 8.02437 11.3341 8.811C10.6088 9.58857 10.0296 10.5039 9.62718 11.5087C9.21122 12.5557 9.00212 13.6812 9.01268 14.8162C9.01268 15.6082 9.1151 16.3643 9.31993 17.082C9.52476 17.838 9.79787 18.522 10.1734 19.1677C10.5148 19.8158 10.9927 20.3918 11.5048 20.9318C11.8121 21.2558 12.1535 21.5415 12.529 21.7935C11.7392 22.1671 10.9943 22.6384 10.31 23.1975C9.42235 23.9175 8.63715 24.7792 7.98851 25.7153C7.34469 26.6819 6.84929 27.7495 6.52054 28.8787C6.4864 28.9508 6.4864 29.0228 6.4864 29.0588C3.78942 26.181 2.11661 22.2975 2.11661 17.982C2.11661 9.315 8.84198 2.22975 17.0695 2.22975C25.297 2.22975 32.0223 9.315 32.0223 17.982C32.0179 22.1219 30.459 26.0915 27.6867 29.0228Z" fill="white"/>
</svg>
